<?xml version="1.0" standalone="no"?>
<!DOCTYPE svg PUBLIC "-//W3C//DTD SVG 20010904//EN"
 "http://www.w3.org/TR/2001/REC-SVG-20010904/DTD/svg10.dtd">
<svg version="1.0" xmlns="http://www.w3.org/2000/svg"
 width="1209.000000pt" height="850.000000pt" viewBox="0 0 1209.000000 850.000000"
 preserveAspectRatio="xMidYMid meet">

<g transform="translate(0.000000,850.000000) scale(0.100000,-0.100000)"
fill="#000000" stroke="none">
<path d="M4124 7282 c-70 -45 -97 -175 -74 -357 20 -161 145 -554 218 -684 4
-8 42 -27 82 -43 112 -44 254 -105 352 -149 80 -37 90 -39 127 -29 33 9 42 16
51 46 7 20 39 64 71 97 33 33 59 68 59 77 0 9 -7 39 -15 66 -34 111 -13 145
76 123 45 -12 51 -11 76 7 15 11 28 25 30 30 2 6 -29 50 -68 99 -280 353 -535
590 -751 697 -81 41 -187 50 -234 20z"/>
<path d="M8320 6384 c-279 -42 -773 -206 -1071 -355 l-57 -28 -11 -68 c-19
-109 -19 -116 -10 -141 5 -12 22 -40 38 -60 17 -20 33 -49 36 -65 6 -24 4 -29
-24 -38 -17 -6 -37 -22 -44 -36 -8 -13 -31 -34 -53 -47 -31 -17 -39 -27 -39
-51 l0 -29 315 3 c304 2 525 -7 717 -30 89 -11 93 -11 125 12 182 127 461 393
539 514 149 230 119 372 -90 421 -72 17 -249 16 -371 -2z"/>
<path d="M5070 5173 c-121 -43 -544 -242 -680 -320 -247 -142 -375 -221 -495
-306 -455 -324 -704 -600 -731 -811 -7 -52 27 -122 74 -153 92 -61 282 -74
511 -34 488 84 1061 319 1654 679 59 36 104 68 101 71 -3 3 -88 6 -190 6 -225
0 -224 0 -232 120 -5 74 -6 77 -34 87 -35 12 -48 42 -37 82 10 33 8 36 -17 40
-26 4 -39 60 -21 95 14 27 13 28 -19 40 -19 7 -39 9 -45 5 -14 -8 -6 7 27 51
19 26 21 32 9 48 -19 26 -11 42 61 119 47 50 67 81 79 119 21 73 21 75 -15 62z
m-370 -713 c0 -5 -5 -10 -11 -10 -5 0 -7 5 -4 10 3 6 8 10 11 10 2 0 4 -4 4
-10z m293 -27 c-13 -2 -35 -2 -50 0 -16 2 -5 4 22 4 28 0 40 -2 28 -4z m74 1
c-3 -3 -12 -4 -19 -1 -8 3 -5 6 6 6 11 1 17 -2 13 -5z"/>
<path d="M6390 4278 c-25 -13 -51 -35 -60 -50 -16 -30 -13 -39 67 -178 93
-161 383 -594 423 -630 3 -3 18 -22 33 -42 189 -253 481 -543 677 -670 185
-121 338 -116 387 11 22 57 24 241 4 346 -28 145 -164 544 -204 598 -6 10 -55
33 -107 51 -290 104 -662 285 -999 487 -90 55 -167 99 -170 99 -4 0 -27 -10
-51 -22z"/>
<path d="M2882 2235 c-71 -23 -121 -57 -152 -103 -50 -76 -52 -167 -5 -247 32
-56 108 -94 260 -131 148 -36 176 -64 120 -119 -20 -21 -34 -25 -85 -25 -51 0
-65 4 -85 25 -14 13 -25 36 -25 50 l0 25 -116 0 -117 0 6 -50 c12 -96 73 -167
177 -206 54 -20 234 -23 297 -6 113 33 193 131 193 238 0 133 -66 193 -268
239 -140 33 -161 42 -169 73 -16 65 108 98 178 47 19 -13 45 -32 58 -42 16
-11 49 -18 109 -21 l85 -5 -7 43 c-12 74 -55 139 -116 177 -83 50 -241 68
-338 38z"/>
<path d="M6094 2230 c-27 -11 -54 -48 -54 -73 0 -10 8 -32 17 -48 50 -85 204
-52 203 44 -1 36 -14 58 -47 75 -25 14 -88 15 -119 2z"/>
<path d="M4730 1840 l0 -390 105 0 106 0 -3 366 -3 366 -28 24 c-24 21 -38 24
-103 24 l-74 0 0 -390z"/>
<path d="M5320 1840 l0 -390 228 0 c166 0 241 4 275 14 174 52 233 246 110
364 l-45 44 24 26 c34 37 48 75 48 128 0 59 -19 103 -63 141 -62 54 -113 63
-359 63 l-218 0 0 -390z m382 200 c29 -8 38 -17 43 -41 5 -20 1 -38 -9 -54
-15 -24 -22 -25 -106 -25 l-90 0 0 58 c0 32 3 62 7 65 10 11 114 8 155 -3z
m48 -290 c11 -11 20 -31 20 -45 0 -51 -30 -65 -135 -65 l-95 0 0 65 0 65 95 0
c82 0 98 -3 115 -20z"/>
<path d="M6350 1840 l0 -390 105 0 105 0 0 350 c0 297 -2 356 -15 381 -20 38
-50 49 -131 49 l-64 0 0 -390z"/>
<path d="M6693 2163 c-23 -37 -39 -71 -37 -75 3 -4 34 -8 70 -8 65 0 66 0 120
52 38 36 54 58 52 72 -3 19 -11 21 -83 24 l-80 3 -42 -68z"/>
<path d="M7752 2030 c-62 -15 -113 -60 -146 -130 -28 -59 -31 -74 -31 -165 0
-83 4 -109 23 -150 41 -89 92 -129 178 -140 58 -8 120 6 158 36 l26 20 0 -29
c0 -83 -52 -129 -114 -102 -18 8 -77 16 -138 18 -121 4 -125 1 -85 -59 39 -58
93 -88 177 -98 87 -11 191 -1 244 24 20 9 49 32 66 51 54 62 60 106 60 426 l0
288 -105 0 -105 0 0 -26 0 -26 -30 26 c-49 40 -108 53 -178 36z m158 -175 c36
-19 54 -70 48 -143 -4 -45 -10 -60 -32 -79 -35 -30 -77 -29 -113 1 -26 23 -28
29 -28 101 0 74 1 78 33 106 37 33 51 35 92 14z"/>
<path d="M9123 2031 c-103 -18 -192 -94 -220 -190 -21 -74 -14 -201 14 -256
32 -60 91 -111 151 -130 73 -24 210 -17 269 13 54 28 107 81 121 121 l11 31
-98 0 c-68 0 -108 -5 -127 -15 -58 -30 -119 -11 -141 43 l-13 32 200 0 200 0
0 49 c0 67 -33 169 -70 213 -58 70 -186 108 -297 89z m128 -180 c52 -52 42
-61 -66 -61 -52 0 -95 3 -95 8 0 11 30 55 48 70 29 22 81 15 113 -17z"/>
<path d="M3638 2020 c-47 -14 -55 -23 -28 -30 14 -4 28 -2 33 4 5 7 10 6 17
-4 9 -13 10 -13 10 0 0 13 1 13 10 0 9 -13 11 -13 19 0 8 12 13 11 31 -5 14
-13 17 -22 10 -29 -14 -14 -12 -26 4 -26 13 0 23 -14 24 -35 0 -5 9 -13 19
-17 14 -7 13 -7 -5 -4 -18 4 -34 -6 -68 -41 -24 -25 -41 -50 -38 -54 3 -5 0
-9 -5 -9 -6 0 -11 5 -11 11 0 6 -12 9 -27 7 -21 -2 -29 -9 -31 -27 -3 -20 0
-23 17 -18 14 3 21 0 21 -9 0 -8 5 -14 10 -14 6 0 10 -10 10 -22 -1 -21 -2
-21 -13 -7 -7 10 -29 24 -50 32 -20 9 -37 22 -37 28 0 7 -12 30 -26 51 -23 32
-25 42 -16 65 33 87 20 113 -27 54 -45 -56 -63 -107 -64 -176 -1 -82 16 -135
63 -193 55 -70 130 -106 224 -107 81 0 123 14 183 62 53 42 83 84 88 123 3 24
0 30 -15 30 -21 0 -31 32 -23 75 3 17 5 64 5 105 -1 74 -2 76 -39 108 -36 31
-104 72 -119 72 -4 0 2 -10 13 -22 17 -20 18 -26 8 -46 -12 -23 -13 -23 -51
27 -41 53 -63 60 -126 41z m138 -346 c18 -8 34 -21 38 -29 3 -8 11 -15 19 -15
7 0 18 -5 24 -11 16 -16 -26 -61 -87 -96 -25 -15 -51 -33 -57 -41 -20 -25 -27
-5 -14 38 11 38 10 43 -13 71 -21 25 -24 34 -15 56 21 55 35 58 105 27z"/>
<path d="M7044 2011 c-89 -40 -104 -93 -104 -365 l0 -208 84 3 c125 6 126 7
126 183 0 196 17 241 81 221 33 -11 39 -47 39 -231 l0 -174 105 0 105 0 0 213
c0 223 -7 276 -43 316 -44 48 -91 61 -227 61 -101 0 -133 -4 -166 -19z"/>
<path d="M4082 1782 l3 -239 29 -37 c45 -60 76 -68 247 -64 169 3 187 10 227
88 21 42 22 56 22 267 l0 223 -74 0 c-41 0 -82 -3 -91 -6 -36 -14 -45 -57 -45
-214 0 -137 -2 -152 -20 -170 -11 -11 -27 -20 -35 -20 -8 0 -24 9 -35 20 -19
19 -20 33 -20 205 l0 185 -106 0 -105 0 3 -238z"/>
<path d="M6050 1735 l0 -285 105 0 105 0 0 285 0 285 -105 0 -105 0 0 -285z"/>
<path d="M6640 1735 l0 -285 105 0 105 0 0 256 0 256 -31 29 c-29 27 -37 29
-105 29 l-74 0 0 -285z"/>
<path d="M8252 1798 c3 -216 4 -224 28 -267 41 -72 68 -86 164 -86 73 0 87 3
124 28 l42 27 0 -25 0 -25 105 0 105 0 0 285 0 285 -105 0 -105 0 0 -170 c0
-131 -3 -178 -15 -199 -23 -46 -71 -55 -105 -21 -19 19 -20 33 -20 205 l0 185
-111 0 -111 0 4 -222z"/>
<path d="M3686 1965 c-10 -8 -24 -16 -30 -18 -6 -3 -2 -13 11 -26 28 -27 33
-26 33 4 0 14 5 25 10 25 6 0 10 7 10 15 0 19 -9 19 -34 0z"/>
<path d="M3970 1837 c0 -8 7 -17 15 -21 8 -3 15 -2 15 3 0 5 -7 14 -15 21 -12
10 -15 10 -15 -3z"/>
</g>
</svg>
